<svg id="Capa_1" enable-background="new 0 0 512 512" height="512" viewBox="0 0 512 512" width="512" xmlns="http://www.w3.org/2000/svg"><g><g><path d="m448.387 360.21h-384.774c-30.99 0-56.113 25.123-56.113 56.113v32.065c0 30.99 25.123 56.113 56.113 56.113h384.774c30.99 0 56.113-25.123 56.113-56.113v-32.065c0-30.991-25.123-56.113-56.113-56.113z" fill="#75d3eb"/><path d="m448.387 183.855h-384.774c-30.99 0-56.113 25.123-56.113 56.113v32.065c0 30.99 25.123 56.113 56.113 56.113h384.774c30.99 0 56.113-25.123 56.113-56.113v-32.065c0-30.991-25.123-56.113-56.113-56.113z" fill="#b4e77a"/><path d="m448.387 7.5h-384.774c-30.99 0-56.113 25.123-56.113 56.113v32.065c0 30.99 25.123 48.613 56.113 48.613l384.774 7.5c30.99 0 56.113-25.123 56.113-56.113v-32.065c0-30.99-25.123-56.113-56.113-56.113z" fill="#ffdc78"/><path d="m87.661 247.984c-8.854 0-16.032-7.178-16.032-16.032 0-8.854 7.178-16.032 16.032-16.032 8.854 0 16.032 7.178 16.032 16.032.001 8.854-7.177 16.032-16.032 16.032z" fill="#fff"/><path d="m55.597 281.426c0-.322.077-.63.086-.951-.008-.149-.086-.275-.086-.427z" fill="#fff"/><path d="m63.613 480.452c-17.684 0-32.065-14.384-32.065-32.065v-78.077c-14.525 10.142-24.048 26.953-24.048 46.013v32.065c0 30.99 25.123 56.113 56.113 56.113h384.774c19.059 0 35.871-9.524 46.013-24.048h-430.787z" fill="#50bfeb"/><path d="m63.613 304.097c-17.684 0-32.065-14.384-32.065-32.065v-78.077c-14.525 10.142-24.048 26.953-24.048 46.013v32.065c0 30.99 25.123 56.113 56.113 56.113h384.774c19.059 0 35.871-9.524 46.013-24.048h-430.787z" fill="#94d77b"/><path d="m63.613 127.742c-17.684 0-32.065-14.384-32.065-32.065v-78.077c-14.525 10.142-24.048 26.954-24.048 46.013v32.065c0 30.99 25.123 56.113 56.113 56.113h384.774c19.059 0 35.871-9.524 46.013-24.048h-430.787z" fill="#ffcc5c"/><g fill="#fff"><path d="m119.726 111.71h-64.129c-4.427 0-8.016-3.589-8.016-8.016v-48.097c0-4.427 3.589-8.016 8.016-8.016h64.129c4.427 0 8.016 3.589 8.016 8.016v48.097c0 4.427-3.589 8.016-8.016 8.016z"/><path d="m87.661 247.984c-17.709 0-32.065 14.356-32.065 32.065v8.016h64.129v-8.016c.001-17.71-14.354-32.065-32.064-32.065z"/></g></g><g><path d="m448.387 0h-384.774c-35.076 0-63.613 28.537-63.613 63.613v32.065c0 35.076 28.537 63.613 63.613 63.613 4.142 0 7.5-3.358 7.5-7.5s-3.358-7.5-7.5-7.5c-26.805-.001-48.613-21.808-48.613-48.614v-32.064c0-26.805 21.808-48.613 48.613-48.613h384.774c26.805 0 48.613 21.808 48.613 48.613v32.065c0 26.805-21.808 48.613-48.613 48.613h-352.71c-4.142 0-7.5 3.358-7.5 7.5s3.358 7.5 7.5 7.5h352.71c35.076 0 63.613-28.537 63.613-63.613v-32.065c0-35.076-28.537-63.613-63.613-63.613z"/><path d="m135.242 103.694v-48.097c0-8.556-6.96-15.516-15.516-15.516h-64.129c-8.556 0-15.516 6.96-15.516 15.516v48.097c0 8.556 6.96 15.516 15.516 15.516h64.129c8.555 0 15.516-6.961 15.516-15.516zm-17.591-48.613-18.288 18.288c-3.125 3.125-7.281 4.847-11.702 4.847-4.42 0-8.576-1.721-11.701-4.847l-18.289-18.288zm-62.57 48.613v-29.99l10.273 10.273c5.958 5.959 13.881 9.24 22.308 9.24s16.35-3.282 22.308-9.24l10.272-10.273v29.99c0 .285-.231.516-.516.516h-64.129c-.285 0-.516-.232-.516-.516z"/><path d="m448.387 176.355h-384.774c-35.076 0-63.613 28.536-63.613 63.613v32.064c0 35.076 28.537 63.613 63.613 63.613h384.774c35.076 0 63.613-28.537 63.613-63.613v-32.064c0-35.077-28.537-63.613-63.613-63.613zm48.613 95.677c0 26.805-21.808 48.613-48.613 48.613h-384.774c-26.805 0-48.613-21.807-48.613-48.613v-32.064c0-26.805 21.808-48.613 48.613-48.613h384.774c26.805 0 48.613 21.808 48.613 48.613z"/><path d="m448.387 352.71c-4.142 0-7.5 3.358-7.5 7.5s3.358 7.5 7.5 7.5c26.805 0 48.613 21.808 48.613 48.613v32.064c0 26.805-21.808 48.613-48.613 48.613h-384.774c-26.805 0-48.613-21.808-48.613-48.613v-32.064c0-26.805 21.808-48.613 48.613-48.613h352.71c4.142 0 7.5-3.358 7.5-7.5s-3.358-7.5-7.5-7.5h-352.71c-35.076 0-63.613 28.536-63.613 63.613v32.064c0 35.076 28.537 63.613 63.613 63.613h384.774c35.076 0 63.613-28.537 63.613-63.613v-32.064c0-35.077-28.537-63.613-63.613-63.613z"/><path d="m175.839 71.113h128.258c4.142 0 7.5-3.358 7.5-7.5s-3.358-7.5-7.5-7.5h-128.258c-4.142 0-7.5 3.358-7.5 7.5s3.358 7.5 7.5 7.5z"/><path d="m175.839 103.177h264.532c4.142 0 7.5-3.358 7.5-7.5s-3.358-7.5-7.5-7.5h-264.532c-4.142 0-7.5 3.358-7.5 7.5s3.358 7.5 7.5 7.5z"/><path d="m175.839 247.468h128.258c4.142 0 7.5-3.358 7.5-7.5s-3.358-7.5-7.5-7.5h-128.258c-4.142 0-7.5 3.358-7.5 7.5s3.358 7.5 7.5 7.5z"/><path d="m440.371 264.532h-264.532c-4.142 0-7.5 3.358-7.5 7.5s3.358 7.5 7.5 7.5h264.532c4.142 0 7.5-3.358 7.5-7.5s-3.358-7.5-7.5-7.5z"/><path d="m175.839 423.823h128.258c4.142 0 7.5-3.358 7.5-7.5s-3.358-7.5-7.5-7.5h-128.258c-4.142 0-7.5 3.358-7.5 7.5s3.358 7.5 7.5 7.5z"/><path d="m175.839 455.887h264.532c4.142 0 7.5-3.358 7.5-7.5s-3.358-7.5-7.5-7.5h-264.532c-4.142 0-7.5 3.358-7.5 7.5s3.358 7.5 7.5 7.5z"/><path d="m106.892 245.489c2.706-3.832 4.302-8.5 4.302-13.537 0-12.976-10.557-23.532-23.532-23.532s-23.532 10.557-23.532 23.532c0 5.037 1.596 9.706 4.302 13.537-12.118 6.77-20.334 19.72-20.334 34.559v8.016c0 4.142 3.358 7.5 7.5 7.5s7.5-3.358 7.5-7.5v-8.016c0-13.545 11.02-24.564 24.564-24.564s24.564 11.02 24.564 24.564v8.016c0 4.142 3.358 7.5 7.5 7.5s7.5-3.358 7.5-7.5v-8.016c0-14.839-8.216-27.789-20.334-34.559zm-27.763-13.537c0-4.705 3.828-8.532 8.532-8.532s8.532 3.828 8.532 8.532-3.828 8.532-8.532 8.532-8.532-3.828-8.532-8.532z"/><path d="m75.637 392.79c-15.186 0-27.541 12.354-27.541 27.54s12.354 27.541 27.541 27.541c4.873 0 9.451-1.278 13.426-3.507l25.359 25.359c1.464 1.464 3.384 2.197 5.303 2.197s3.839-.732 5.303-2.197c2.929-2.929 2.929-7.678 0-10.606l-25.358-25.36c2.23-3.975 3.507-8.553 3.507-13.427 0-15.185-12.354-27.54-27.54-27.54zm-12.54 27.541c0-6.915 5.625-12.54 12.541-12.54 6.915 0 12.54 5.626 12.54 12.54 0 6.915-5.625 12.541-12.54 12.541-6.916-.001-12.541-5.626-12.541-12.541z"/></g></g></svg>