<svg id="Capa_1" enable-background="new 0 0 501 501" height="512" viewBox="0 0 501 501" width="512" xmlns="http://www.w3.org/2000/svg"><g><path d="m71.988 405.259c-4.58 4.871-12.385 4.468-16.439-.849-31.402-41.187-50.049-92.621-50.049-148.41 0-135.31 109.69-245 245-245s245 109.69 245 245c0 55.597-18.519 106.868-49.724 147.983-4.211 5.548-12.348 5.95-17.131.886-44.667-47.292-107.959-76.805-178.144-76.805-70.379 0-133.827 29.675-178.513 77.195z" fill="#0cc33c"/><path d="m446.5 100v303.023c-13.567 18.058-29.571 34.179-47.524 47.877h-288.694c-5.556 0-10.913-1.975-15.206-5.502-15.152-12.449-28.785-26.681-40.576-42.375v-303.023c0-11.046 8.954-20 20-20h352c11.046 0 20 8.954 20 20z" fill="#c92c2c"/><path d="m102.5 80c-11.046 0-20 8.954-20 20v334.329c-10.197-9.609-19.569-20.084-28-31.306v-303.023c0-11.046 8.954-20 20-20z" fill="#99302b"/><path d="m386.5 130v329.817c-38.908 26.014-85.683 41.183-136 41.183-59.271 0-113.627-21.048-156-56.076v-314.924c0-5.523 4.477-10 10-10h272c5.523 0 10 4.477 10 10z" fill="#f3d373"/><path d="m421.796 467.831c1.388 6.245-3.364 12.169-9.762 12.169h-271.512c-4.687 0-8.745-3.255-9.762-7.831l-.964-4.339c-11.496-51.731-17.296-104.566-17.296-157.559v-190.271c0-5.523 4.477-10 10-10h272c5.523 0 10 4.477 10 10v190.271c0 52.993 5.8 105.828 17.296 157.56z" fill="#fdf385"/><path d="m274.5 215v5c0 2.761-2.239 5-5 5h-130c-2.761 0-5-2.239-5-5v-5c0-2.761 2.239-5 5-5h130c2.761 0 5 2.239 5 5zm-135 35h60c2.761 0 5-2.239 5-5v-5c0-2.761-2.239-5-5-5h-60c-2.761 0-5 2.239-5 5v5c0 2.761 2.239 5 5 5zm242.5-50v50c0 4.143-3.357 7.5-7.5 7.5h-50c-4.143 0-7.5-3.357-7.5-7.5v-50c0-4.143 3.357-7.5 7.5-7.5h50c4.143 0 7.5 3.357 7.5 7.5zm-15 7.5h-35v35h35zm-97.5 88.064h-130c-2.761 0-5 2.239-5 5v5c0 2.761 2.239 5 5 5h130c2.761 0 5-2.239 5-5v-5c0-2.761-2.239-5-5-5zm-130 40h60c2.761 0 5-2.239 5-5v-5c0-2.761-2.239-5-5-5h-60c-2.761 0-5 2.239-5 5v5c0 2.761 2.239 5 5 5zm242.5-50v50c0 4.143-3.357 7.5-7.5 7.5h-50c-4.143 0-7.5-3.357-7.5-7.5v-50c0-4.143 3.357-7.5 7.5-7.5h50c4.143 0 7.5 3.357 7.5 7.5zm-15 7.5h-35v35h35zm-97.5 89.436h-130c-2.761 0-5 2.239-5 5v5c0 2.761 2.239 5 5 5h130c2.761 0 5-2.239 5-5v-5c0-2.761-2.239-5-5-5zm-70 25h-60c-2.761 0-5 2.239-5 5v5c0 2.761 2.239 5 5 5h60c2.761 0 5-2.239 5-5v-5c0-2.761-2.239-5-5-5zm182.5-35v50c0 4.143-3.357 7.5-7.5 7.5h-50c-4.143 0-7.5-3.357-7.5-7.5v-50c0-4.143 3.357-7.5 7.5-7.5h50c4.143 0 7.5 3.357 7.5 7.5zm-15 7.5h-35v35h35z" fill="#f3d373"/><path d="m412.303 187.239-58.064 58.064c-1.465 1.464-3.385 2.196-5.304 2.196s-3.839-.732-5.304-2.196l-31.936-31.936c-2.929-2.93-2.929-7.678 0-10.607 2.93-2.928 7.678-2.928 10.607 0l26.632 26.633 52.761-52.762c2.93-2.928 7.678-2.928 10.607 0 2.93 2.931 2.93 7.679.001 10.608z" fill="#fd4fb6"/><path d="m295.5 85h-90c-15.163 0-27.5 12.337-27.5 27.5v33.793c0 12.281 8.296 23.185 20.173 26.513 17.029 4.773 34.635 7.194 52.327 7.194s35.298-2.421 52.326-7.194c11.878-3.328 20.174-14.232 20.174-26.513v-33.793c0-15.163-12.337-27.5-27.5-27.5zm12.5 61.293c0 5.585-3.792 10.548-9.222 12.069-15.712 4.405-31.955 6.638-48.278 6.638s-32.566-2.233-48.279-6.638c-5.429-1.521-9.221-6.484-9.221-12.069v-33.793c0-6.893 5.607-12.5 12.5-12.5h90c6.893 0 12.5 5.607 12.5 12.5z" fill="#003278"/><path d="m165.5 125.333v-60.014c0-4.43 2.907-8.355 7.16-9.594 24.698-7.199 50.818-11.059 77.84-11.059s53.143 3.86 77.84 11.059c4.253 1.24 7.16 5.164 7.16 9.594v60.014c0 5.523-4.477 10-10 10h-150c-5.523 0-10-4.477-10-10z" fill="#314dc8"/><path d="m328.34 55.725c-16.685-4.863-34.018-8.202-51.84-9.857v-20.868c0-13.807-11.193-25-25-25h-2c-13.807 0-25 11.193-25 25v20.869c-2.161.201-4.315.426-6.461.676-13.454 1.566-23.539 13.081-23.539 26.626 0 14.817 12.012 26.829 26.829 26.829h87.342c14.817 0 26.829-12.012 26.829-26.829v-7.852c0-4.429-2.907-8.355-7.16-9.594zm-85.34-12.725v-16c0-3.866 3.134-7 7-7h1c3.866 0 7 3.134 7 7v16c0 .608-.078 1.198-.223 1.761-2.418-.063-4.844-.094-7.277-.094s-4.859.031-7.277.094c-.145-.563-.223-1.153-.223-1.761z" fill="#4f66cf"/></g></svg>